<svg xmlns="http://www.w3.org/2000/svg" width="700" height="400" viewBox="0 0 700 400">
  <defs>
    <linearGradient id="bgAtm" x1="0%" y1="0%" x2="100%" y2="100%">
      <stop offset="0%" stop-color="#0f2027" />
      <stop offset="50%" stop-color="#203a43" />
      <stop offset="100%" stop-color="#2c5364" />
    </linearGradient>
  </defs>
  <rect width="700" height="400" fill="url(#bgAtm)"/>
  
  <text x="230" y="55" font-family="'Outfit', sans-serif" font-weight="bold" font-size="22" fill="#ffcc00" text-anchor="middle">Job Opening -</text>
  <text x="230" y="95" font-family="'Outfit', sans-serif" font-weight="900" font-size="30" fill="#ffffff" text-anchor="middle">ATM Cash Refilling Officer</text>
  
  <rect x="40" y="115" width="380" height="36" rx="6" fill="#00b894"/>
  <text x="230" y="139" font-family="'Outfit', sans-serif" font-weight="bold" font-size="14" fill="#ffffff" text-anchor="middle">✔ On Company Payroll • Direct Joining</text>

  <rect x="40" y="160" width="380" height="36" rx="6" fill="#ffffff" opacity="0.15"/>
  <text x="230" y="184" font-family="'Outfit', sans-serif" font-weight="bold" font-size="14" fill="#ffffff" text-anchor="middle">✔ Location: Barddhaman, Kolkata & All WB</text>
  
  <text x="230" y="240" font-family="'Outfit', sans-serif" font-weight="900" font-size="28" fill="#ffcc00" text-anchor="middle">Salary: ₹15,000 - ₹18,000 / month</text>
  <text x="230" y="275" font-family="'Plus Jakarta Sans', sans-serif" font-weight="bold" font-size="15" fill="#ffffff" text-anchor="middle">Qualification: 10th / 12th Pass</text>
  
  <rect x="130" y="305" width="200" height="45" rx="22" fill="#0072ff"/>
  <text x="230" y="334" font-family="'Outfit', sans-serif" font-weight="bold" font-size="18" fill="#ffffff" text-anchor="middle">APPLY NOW</text>
  
  <!-- ATM Cash Custodian Officer Graphic Right -->
  <g transform="translate(460, 50)">
    <rect x="20" y="40" width="160" height="280" rx="10" fill="#1b1827" stroke="#00b894" stroke-width="4"/>
    <rect x="40" y="60" width="120" height="80" rx="6" fill="#00b894"/>
    <text x="100" y="105" font-family="sans-serif" font-weight="bold" font-size="20" fill="#ffffff" text-anchor="middle">ATM</text>
    <rect x="50" y="160" width="100" height="15" rx="3" fill="#ffffff"/>
    <rect x="50" y="200" width="100" height="80" rx="4" fill="#333333"/>
  </g>
</svg>